<svg id="svg" version="1.1" xmlns="http://www.w3.org/2000/svg" xmlns:xlink="http://www.w3.org/1999/xlink" width="400" height="400" viewBox="0, 0, 400,400"><g id="svgg"><path id="path0" d="M134.029 45.522 C 132.443 46.266,131.019 46.875,130.866 46.875 C 129.981 46.875,115.719 54.171,113.093 55.967 C 112.237 56.552,111.390 57.031,111.210 57.031 C 110.781 57.031,107.265 59.432,107.096 59.841 C 107.025 60.014,106.731 60.156,106.443 60.156 C 106.155 60.156,105.092 60.788,104.080 61.560 C 103.069 62.332,101.753 63.255,101.156 63.611 C 99.713 64.471,94.129 68.700,93.247 69.600 C 92.862 69.992,92.422 70.313,92.268 70.313 C 92.114 70.313,91.256 70.972,90.362 71.777 C 89.468 72.583,87.820 74.033,86.699 75.000 C 83.979 77.348,73.690 87.627,71.484 90.200 C 70.518 91.328,69.463 92.547,69.141 92.908 C 66.912 95.409,63.672 99.554,63.672 99.904 C 63.672 100.136,63.516 100.384,63.326 100.456 C 62.933 100.603,60.156 104.179,60.156 104.537 C 60.156 104.665,59.585 105.483,58.887 106.354 C 58.188 107.225,57.354 108.415,57.031 108.999 C 56.709 109.583,55.786 111.053,54.980 112.265 C 54.175 113.477,53.516 114.570,53.516 114.693 C 53.516 114.817,53.180 115.390,52.770 115.966 C 51.183 118.195,43.359 133.475,43.359 134.346 C 43.359 134.517,42.656 136.178,41.797 138.038 C 40.937 139.899,40.234 141.627,40.234 141.880 C 40.234 142.132,39.526 144.151,38.660 146.366 C 37.794 148.581,36.929 151.140,36.739 152.052 C 36.549 152.965,35.771 155.908,35.010 158.594 C 33.540 163.788,31.624 173.463,30.602 180.859 C 29.685 187.495,29.693 213.937,30.614 220.508 C 31.546 227.157,33.469 236.961,34.829 241.992 C 35.467 244.355,36.315 247.528,36.713 249.043 C 37.111 250.558,38.066 253.389,38.835 255.335 C 39.605 257.281,40.234 259.053,40.234 259.272 C 40.234 260.450,46.765 274.544,50.328 281.055 C 53.850 287.490,58.090 294.151,61.228 298.178 C 61.925 299.073,63.039 300.640,63.703 301.660 C 64.367 302.681,65.028 303.517,65.170 303.518 C 65.313 303.520,65.868 304.179,66.403 304.983 C 66.938 305.787,67.481 306.533,67.609 306.641 C 67.738 306.748,68.970 308.154,70.347 309.764 C 75.572 315.873,85.144 325.216,90.593 329.526 C 91.113 329.937,92.275 330.933,93.176 331.738 C 94.077 332.544,94.987 333.203,95.198 333.203 C 95.409 333.203,95.917 333.580,96.326 334.041 C 96.735 334.501,97.881 335.424,98.872 336.092 C 99.862 336.759,102.507 338.546,104.749 340.063 C 115.557 347.375,137.419 358.412,138.654 357.180 C 138.771 357.063,138.919 350.660,138.983 342.952 L 139.099 328.936 140.350 329.487 C 145.631 331.813,156.599 335.461,161.537 336.534 C 163.033 336.860,164.961 337.279,165.820 337.467 C 187.198 342.136,209.630 341.752,232.813 336.319 C 236.947 335.350,248.454 331.601,250.391 330.592 C 250.928 330.312,251.606 330.082,251.899 330.081 C 252.191 330.079,254.090 329.287,256.117 328.320 C 258.145 327.354,259.944 326.563,260.115 326.563 C 260.571 326.562,262.924 325.379,264.123 324.548 C 264.693 324.152,265.220 323.828,265.295 323.829 C 265.369 323.829,265.498 330.798,265.582 339.315 C 265.694 350.681,265.618 354.729,265.297 354.531 C 265.056 354.382,265.156 354.777,265.519 355.410 L 266.178 356.559 268.245 355.623 C 269.382 355.109,271.323 354.238,272.559 353.688 C 277.889 351.317,288.663 345.600,290.449 344.195 C 291.034 343.735,291.662 343.359,291.846 343.359 C 292.030 343.359,293.335 342.568,294.747 341.602 C 296.160 340.635,297.448 339.844,297.611 339.844 C 297.773 339.844,298.597 339.256,299.441 338.537 C 300.286 337.818,301.416 336.999,301.953 336.716 C 302.490 336.433,303.721 335.562,304.688 334.780 C 305.654 333.998,307.852 332.232,309.570 330.855 C 311.289 329.478,313.079 327.993,313.547 327.555 C 314.016 327.117,315.302 325.967,316.405 325.000 C 321.846 320.230,332.787 308.799,333.321 307.324 C 333.458 306.948,333.719 306.641,333.902 306.641 C 334.086 306.641,335.709 304.663,337.509 302.246 C 339.309 299.829,341.175 297.412,341.655 296.875 C 342.136 296.338,342.763 295.459,343.050 294.922 C 343.530 294.024,344.356 292.721,347.878 287.305 C 350.094 283.897,351.980 280.307,357.932 268.164 C 358.564 266.875,359.559 264.502,360.143 262.891 C 360.727 261.279,361.652 258.818,362.198 257.422 C 365.128 249.926,369.192 234.528,369.916 228.177 C 370.111 226.464,370.536 223.247,370.860 221.027 C 372.525 209.624,372.616 194.200,371.090 182.227 C 370.652 178.789,370.122 174.545,369.913 172.796 C 369.704 171.046,368.934 167.179,368.202 164.202 C 367.470 161.225,366.763 158.262,366.632 157.617 C 366.195 155.481,363.201 146.349,361.667 142.473 C 360.836 140.374,360.156 138.481,360.156 138.266 C 360.156 136.756,349.007 115.060,347.276 113.203 C 346.841 112.735,346.484 112.198,346.484 112.008 C 346.484 111.447,340.397 102.542,338.171 99.845 C 337.480 99.008,336.751 98.042,336.552 97.697 C 333.763 92.871,318.367 77.362,308.789 69.732 C 307.715 68.876,306.495 67.866,306.079 67.486 C 305.662 67.107,305.198 66.797,305.047 66.797 C 304.896 66.797,303.922 66.094,302.882 65.234 C 301.842 64.375,300.783 63.672,300.528 63.672 C 300.273 63.672,300.007 63.521,299.935 63.337 C 299.863 63.153,298.574 62.191,297.070 61.199 C 295.566 60.207,293.865 59.035,293.288 58.596 C 292.712 58.157,291.745 57.579,291.140 57.312 C 290.534 57.045,289.248 56.313,288.281 55.685 C 286.705 54.661,283.101 52.679,279.883 51.067 C 279.238 50.744,277.480 49.858,275.977 49.099 C 274.473 48.339,272.363 47.374,271.289 46.954 C 270.215 46.534,268.721 45.921,267.969 45.591 L 266.602 44.993 266.742 60.973 C 266.901 79.152,267.217 77.758,263.368 75.838 C 262.139 75.225,260.254 74.413,259.180 74.033 C 258.105 73.653,256.699 73.117,256.055 72.842 C 236.524 64.506,205.075 61.378,181.836 65.459 C 171.280 67.313,170.314 67.517,166.520 68.693 C 164.416 69.345,161.992 70.051,161.133 70.261 C 158.439 70.920,150.005 74.033,146.432 75.687 C 145.060 76.321,143.501 76.976,142.965 77.142 C 142.430 77.308,141.318 77.784,140.494 78.200 L 138.995 78.956 139.110 62.540 L 139.226 46.123 138.295 45.132 C 137.159 43.923,137.506 43.891,134.029 45.522 M135.338 52.056 C 135.330 53.289,135.286 60.446,135.240 67.961 L 135.156 81.625 133.496 82.467 C 103.121 97.872,76.310 129.919,64.907 164.453 C 44.367 226.657,72.727 295.424,130.887 324.445 L 135.156 326.575 135.156 339.264 C 135.156 346.243,135.027 351.953,134.869 351.953 C 132.632 351.953,116.427 343.238,106.836 336.876 C 53.013 301.178,23.746 233.884,35.584 173.047 C 46.442 117.246,80.246 73.986,130.859 51.118 C 135.141 49.183,135.355 49.228,135.338 52.056 M274.983 52.794 C 353.603 91.219,388.803 181.353,356.574 261.719 C 341.722 298.752,311.458 330.964,275.291 348.231 C 272.354 349.634,269.769 350.781,269.546 350.781 C 269.273 350.781,269.146 345.969,269.157 336.035 L 269.173 321.289 273.001 319.071 C 333.290 284.142,359.440 208.814,332.916 146.484 C 321.062 118.627,296.746 92.267,272.168 80.627 L 270.703 79.933 270.700 67.994 C 270.699 61.427,270.586 54.868,270.449 53.418 C 270.151 50.263,269.880 50.300,274.983 52.794 M216.900 67.763 C 226.695 68.713,235.378 70.263,242.383 72.312 C 250.936 74.814,256.403 76.713,260.547 78.622 C 262.158 79.364,264.230 80.288,265.152 80.677 L 266.827 81.382 266.708 117.351 C 266.565 160.095,266.903 157.560,261.208 158.613 C 257.149 159.363,144.215 158.911,142.511 158.138 C 139.131 156.604,139.063 155.761,139.063 115.624 L 139.063 83.169 142.676 81.459 C 148.252 78.819,152.785 76.863,154.089 76.533 C 154.740 76.368,156.768 75.671,158.594 74.984 C 160.420 74.296,162.354 73.646,162.891 73.539 C 163.428 73.431,166.328 72.652,169.336 71.808 C 172.344 70.964,175.859 70.124,177.148 69.943 C 178.438 69.762,182.568 69.164,186.328 68.614 C 196.855 67.075,206.919 66.795,216.900 67.763 M282.031 89.626 C 357.474 139.339,360.501 247.203,288.086 305.352 C 281.189 310.890,269.845 318.412,269.264 317.832 C 269.137 317.705,268.893 303.577,268.723 286.437 C 268.291 242.923,268.120 242.120,259.061 241.054 C 255.282 240.610,144.603 241.669,142.416 242.170 C 134.863 243.902,134.942 243.415,135.035 287.988 C 135.076 307.485,135.002 323.437,134.872 323.438 C 133.830 323.438,121.672 316.376,116.797 312.940 C 64.841 276.315,47.000 211.611,72.461 152.148 C 82.047 129.761,100.005 108.073,121.304 93.162 C 125.092 90.511,134.374 84.766,134.871 84.766 C 134.991 84.766,135.168 100.015,135.264 118.652 C 135.476 159.920,135.336 158.898,141.137 161.578 L 143.555 162.695 202.938 162.695 L 262.321 162.695 264.869 161.441 C 270.535 158.652,270.398 159.697,270.598 117.719 L 270.765 82.899 273.957 84.654 C 275.712 85.619,279.346 87.857,282.031 89.626 M226.581 173.080 C 210.425 175.917,202.023 188.671,203.868 207.559 C 205.465 223.923,213.506 232.217,229.506 234.007 C 248.885 236.175,263.281 226.456,263.281 211.206 L 263.281 208.984 254.711 208.984 L 246.142 208.984 245.874 210.840 C 244.194 222.502,227.518 223.917,223.964 212.698 C 223.135 210.084,222.796 199.899,223.415 196.228 C 225.534 183.665,242.702 182.877,245.001 195.237 L 245.450 197.656 254.420 197.656 L 263.389 197.656 263.125 194.747 C 262.170 184.208,255.545 176.591,244.727 173.594 C 241.953 172.826,229.962 172.486,226.581 173.080 M154.963 174.121 L 138.246 174.227 138.512 203.813 C 138.659 220.085,138.857 233.486,138.953 233.594 C 139.299 233.980,181.435 233.527,183.203 233.118 C 193.956 230.631,199.247 219.513,194.316 209.766 C 192.838 206.844,188.022 203.148,185.668 203.129 C 184.323 203.118,185.036 202.255,187.269 201.189 C 197.530 196.292,196.824 180.604,186.123 175.749 C 182.995 174.330,179.940 173.808,175.417 173.921 C 173.361 173.973,164.157 174.063,154.963 174.121 M172.465 187.281 C 175.980 188.750,176.487 194.503,173.273 196.451 C 172.241 197.077,171.047 197.200,164.844 197.320 L 157.617 197.461 157.507 192.600 C 157.446 189.926,157.485 187.509,157.592 187.229 C 157.886 186.463,170.615 186.508,172.465 187.281 M174.207 209.875 C 176.602 211.087,177.599 214.496,176.398 217.369 C 175.424 219.701,174.475 219.922,165.449 219.922 L 157.422 219.922 157.422 214.870 L 157.422 209.818 158.496 209.655 C 161.245 209.238,173.282 209.407,174.207 209.875 M259.634 244.635 C 259.736 244.800,259.984 244.833,260.184 244.709 C 260.385 244.585,261.174 245.074,261.939 245.795 C 264.561 248.269,264.751 250.870,265.074 288.710 L 265.339 319.803 261.283 321.784 C 255.999 324.365,250.128 326.950,249.511 326.966 C 249.243 326.974,248.320 327.319,247.461 327.734 C 246.602 328.149,245.749 328.495,245.567 328.502 C 245.384 328.510,244.681 328.764,244.004 329.067 C 241.517 330.181,231.135 332.985,224.414 334.358 C 203.992 338.531,179.185 337.752,160.156 332.339 C 157.900 331.697,154.912 330.839,153.516 330.432 C 150.555 329.569,144.513 327.312,141.339 325.883 L 139.123 324.885 138.899 321.720 C 138.330 313.686,138.346 250.695,138.918 249.075 C 139.571 247.225,140.960 245.598,141.658 245.866 C 141.925 245.968,142.724 245.872,143.435 245.652 C 145.674 244.960,259.220 243.966,259.634 244.635 M135.547 386.523 C 135.547 386.882,135.736 387.111,135.967 387.035 C 136.198 386.958,136.387 386.728,136.387 386.523 C 136.387 386.319,136.198 386.089,135.967 386.012 C 135.736 385.935,135.547 386.165,135.547 386.523 " stroke="none" fill="#61f7d7" fill-rule="evenodd"></path><path id="path1" d="M127.905 52.696 C 44.940 92.847,10.400 189.319,49.710 271.094 C 55.032 282.164,59.691 289.580,69.321 302.307 C 79.121 315.260,98.757 332.277,114.614 341.560 C 121.211 345.422,133.460 351.562,134.567 351.562 C 134.676 351.562,134.766 345.977,134.766 339.151 L 134.766 326.739 131.061 324.899 C 98.776 308.861,74.019 279.178,63.295 243.649 C 46.871 189.235,69.070 126.965,117.188 92.475 C 118.584 91.474,120.221 90.274,120.825 89.809 C 121.846 89.023,133.662 81.830,134.368 81.565 C 134.846 81.385,135.047 49.893,134.570 49.764 C 134.355 49.707,131.356 51.026,127.905 52.696 M270.703 65.450 C 270.703 73.280,270.845 79.688,271.018 79.688 C 271.446 79.688,280.623 84.966,282.813 86.472 C 295.568 95.242,306.707 105.094,312.828 113.018 C 313.399 113.759,314.506 115.131,315.286 116.069 C 326.040 128.985,335.684 148.905,340.033 167.188 C 353.996 225.874,326.253 288.391,272.252 319.930 L 269.531 321.519 269.531 335.955 C 269.531 346.030,269.659 350.391,269.953 350.391 C 270.185 350.391,273.148 349.006,276.537 347.314 C 370.519 300.394,397.523 180.871,332.590 99.219 C 325.628 90.463,312.424 77.236,305.948 72.528 C 305.307 72.061,303.486 70.702,301.902 69.507 C 293.219 62.955,280.006 55.097,272.168 51.823 L 270.703 51.212 270.703 65.450 M270.700 115.891 C 270.697 154.545,270.555 156.635,267.728 159.765 C 264.865 162.934,270.157 162.695,202.734 162.695 L 142.773 162.695 140.527 161.592 C 135.061 158.908,135.096 159.166,134.808 118.639 L 134.570 85.130 130.460 87.584 C 44.275 139.053,37.385 257.801,117.383 312.963 C 122.446 316.455,133.676 323.047,134.560 323.047 C 134.682 323.047,134.667 308.062,134.526 289.746 C 134.200 247.150,134.340 245.906,139.826 242.827 L 141.957 241.631 152.521 241.361 C 158.332 241.212,185.146 241.029,212.109 240.955 L 261.133 240.820 263.014 241.747 C 268.499 244.447,268.772 246.447,269.089 286.198 C 269.225 303.207,269.453 317.240,269.596 317.383 C 270.468 318.254,285.175 307.730,293.960 299.949 C 363.277 238.557,352.882 127.997,273.730 84.801 L 270.703 83.148 270.700 115.891 M241.992 172.694 C 254.518 174.796,262.533 183.044,263.517 194.847 L 263.784 198.047 254.416 198.047 L 245.047 198.047 244.561 195.325 C 243.326 188.418,236.493 185.000,229.733 187.908 C 225.233 189.844,223.816 192.937,223.538 201.428 C 223.105 214.668,226.087 219.695,234.375 219.697 C 241.328 219.699,244.446 217.001,245.513 210.059 L 245.739 208.594 254.763 208.594 L 263.788 208.594 263.564 212.051 C 262.680 225.696,253.087 233.759,236.696 234.636 C 216.962 235.691,205.388 226.371,203.546 207.940 C 201.033 182.803,216.690 168.450,241.992 172.694 M182.137 174.011 C 196.293 177.011,199.889 195.281,187.554 201.533 L 185.460 202.595 187.359 203.314 C 199.299 207.838,199.697 225.853,187.988 231.787 C 183.920 233.848,182.796 233.937,159.766 234.021 L 138.477 234.099 138.239 220.858 C 138.108 213.576,137.976 200.016,137.946 190.726 L 137.891 173.835 157.324 173.730 C 168.013 173.673,177.373 173.586,178.125 173.538 C 178.877 173.490,180.682 173.703,182.137 174.011 M158.073 187.370 C 157.930 187.513,157.813 189.823,157.813 192.504 L 157.813 197.378 164.773 197.178 C 172.311 196.962,173.030 196.781,174.238 194.799 C 175.734 192.347,174.784 188.641,172.406 187.647 C 171.058 187.084,158.600 186.843,158.073 187.370 M158.073 210.026 C 157.930 210.169,157.813 212.367,157.813 214.909 L 157.813 219.531 165.814 219.531 L 173.816 219.531 175.044 218.434 C 177.391 216.337,176.930 211.753,174.232 210.358 C 173.039 209.742,158.653 209.446,158.073 210.026 M140.155 247.168 C 139.544 247.874,138.651 250.978,138.700 252.224 C 138.715 252.612,139.033 251.875,139.406 250.586 C 139.780 249.297,140.301 247.847,140.564 247.363 C 141.138 246.311,140.967 246.230,140.155 247.168 " stroke="none" fill="#040404" fill-rule="evenodd"></path><path id="path2" d="M134.941 67.969 C 134.941 75.381,134.994 78.413,135.058 74.707 C 135.122 71.001,135.122 64.937,135.058 61.230 C 134.994 57.524,134.941 60.557,134.941 67.969 M314.063 79.419 C 314.063 79.486,314.634 80.058,315.332 80.689 L 316.602 81.836 315.454 80.566 C 314.385 79.383,314.063 79.117,314.063 79.419 M81.435 85.254 L 78.711 88.086 81.543 85.362 C 83.101 83.864,84.375 82.589,84.375 82.530 C 84.375 82.243,83.965 82.624,81.435 85.254 M134.952 115.625 C 134.952 132.490,135.000 139.390,135.058 130.957 C 135.117 122.524,135.117 108.726,135.058 100.293 C 135.000 91.860,134.952 98.760,134.952 115.625 M304.102 103.906 C 305.594 105.410,306.903 106.641,307.010 106.641 C 307.118 106.641,305.985 105.410,304.492 103.906 C 303.000 102.402,301.691 101.172,301.583 101.172 C 301.476 101.172,302.609 102.402,304.102 103.906 M104.276 103.027 L 102.930 104.492 104.395 103.146 C 105.758 101.893,106.039 101.563,105.741 101.563 C 105.675 101.563,105.016 102.222,104.276 103.027 M105.249 106.348 L 104.102 107.617 105.371 106.470 C 106.069 105.839,106.641 105.268,106.641 105.200 C 106.641 104.899,106.318 105.164,105.249 106.348 M177.447 173.718 C 178.041 173.808,178.919 173.805,179.400 173.712 C 179.880 173.620,179.395 173.546,178.320 173.549 C 177.246 173.552,176.853 173.628,177.447 173.718 M138.579 174.104 C 139.065 174.198,139.768 174.194,140.141 174.097 C 140.515 173.999,140.117 173.922,139.258 173.927 C 138.398 173.931,138.093 174.011,138.579 174.104 M190.430 178.516 C 191.269 179.375,192.043 180.078,192.151 180.078 C 192.258 180.078,191.659 179.375,190.820 178.516 C 189.981 177.656,189.207 176.953,189.099 176.953 C 188.992 176.953,189.591 177.656,190.430 178.516 M210.938 180.273 C 209.989 181.240,209.300 182.031,209.408 182.031 C 209.515 182.031,210.379 181.240,211.328 180.273 C 212.277 179.307,212.965 178.516,212.858 178.516 C 212.751 178.516,211.886 179.307,210.938 180.273 M256.641 179.883 C 257.369 180.635,258.054 181.250,258.161 181.250 C 258.268 181.250,257.760 180.635,257.031 179.883 C 256.302 179.131,255.618 178.516,255.511 178.516 C 255.403 178.516,255.912 179.131,256.641 179.883 M138.069 195.117 C 138.069 203.711,138.120 207.171,138.183 202.806 C 138.246 198.441,138.246 191.410,138.183 187.181 C 138.120 182.952,138.069 186.523,138.069 195.117 M367.669 187.891 C 367.669 188.643,367.749 188.950,367.847 188.574 C 367.946 188.198,367.946 187.583,367.847 187.207 C 367.749 186.831,367.669 187.139,367.669 187.891 M157.490 192.090 C 157.560 197.191,157.718 196.595,157.903 190.526 C 157.961 188.646,157.876 187.108,157.715 187.108 C 157.554 187.109,157.453 189.351,157.490 192.090 M340.346 193.164 C 340.349 194.238,340.425 194.631,340.515 194.038 C 340.604 193.444,340.602 192.565,340.509 192.084 C 340.417 191.604,340.343 192.090,340.346 193.164 M343.466 194.141 C 343.466 195.107,343.542 195.503,343.635 195.020 C 343.728 194.536,343.728 193.745,343.635 193.262 C 343.542 192.778,343.466 193.174,343.466 194.141 M368.105 196.484 C 368.105 198.311,368.173 199.058,368.255 198.145 C 368.337 197.231,368.337 195.737,368.255 194.824 C 368.173 193.911,368.105 194.658,368.105 196.484 M169.434 197.151 C 169.917 197.244,170.708 197.244,171.191 197.151 C 171.675 197.058,171.279 196.981,170.313 196.981 C 169.346 196.981,168.950 197.058,169.434 197.151 M57.973 206.641 C 57.973 210.400,58.032 211.938,58.103 210.059 C 58.175 208.179,58.175 205.103,58.103 203.223 C 58.032 201.343,57.973 202.881,57.973 206.641 M343.466 201.953 C 343.466 202.920,343.542 203.315,343.635 202.832 C 343.728 202.349,343.728 201.558,343.635 201.074 C 343.542 200.591,343.466 200.986,343.466 201.953 M340.351 203.125 C 340.351 204.307,340.425 204.790,340.514 204.199 C 340.604 203.608,340.604 202.642,340.514 202.051 C 340.425 201.460,340.351 201.943,340.351 203.125 M203.242 203.516 C 203.242 204.697,203.315 205.181,203.405 204.590 C 203.494 203.999,203.494 203.032,203.405 202.441 C 203.315 201.851,203.242 202.334,203.242 203.516 M368.103 204.883 C 368.104 206.602,368.173 207.256,368.255 206.337 C 368.338 205.419,368.337 204.012,368.253 203.212 C 368.169 202.412,368.101 203.164,368.103 204.883 M61.084 206.836 C 61.085 209.199,61.149 210.116,61.227 208.872 C 61.304 207.629,61.304 205.696,61.225 204.576 C 61.146 203.455,61.083 204.473,61.084 206.836 M191.016 205.200 C 191.016 205.268,191.587 205.839,192.285 206.470 L 193.555 207.617 192.407 206.348 C 191.338 205.164,191.016 204.899,191.016 205.200 M249.728 208.885 C 252.050 208.955,255.741 208.954,257.931 208.885 C 260.122 208.815,258.223 208.759,253.711 208.759 C 249.199 208.759,247.407 208.816,249.728 208.885 M367.669 213.281 C 367.669 214.033,367.749 214.341,367.847 213.965 C 367.946 213.589,367.946 212.974,367.847 212.598 C 367.749 212.222,367.669 212.529,367.669 213.281 M242.358 217.285 L 241.211 218.555 242.480 217.407 C 243.179 216.776,243.750 216.205,243.750 216.138 C 243.750 215.836,243.428 216.102,242.358 217.285 M58.294 217.578 C 58.294 218.330,58.374 218.638,58.472 218.262 C 58.571 217.886,58.571 217.271,58.472 216.895 C 58.374 216.519,58.294 216.826,58.294 217.578 M161.642 219.823 C 163.855 219.893,167.371 219.892,169.454 219.822 C 171.538 219.752,169.727 219.695,165.430 219.695 C 161.133 219.696,159.428 219.753,161.642 219.823 M191.776 228.809 L 190.430 230.273 191.895 228.927 C 193.258 227.674,193.539 227.344,193.241 227.344 C 193.175 227.344,192.516 228.003,191.776 228.809 M138.639 234.107 C 138.815 234.284,139.642 234.369,140.476 234.296 L 141.992 234.163 140.155 233.975 C 139.144 233.871,138.462 233.931,138.639 234.107 M177.256 233.880 C 178.175 233.963,179.581 233.962,180.381 233.878 C 181.181 233.794,180.430 233.726,178.711 233.728 C 176.992 233.729,176.338 233.798,177.256 233.880 M232.129 234.664 C 233.364 234.741,235.386 234.741,236.621 234.664 C 237.856 234.586,236.846 234.523,234.375 234.523 C 231.904 234.523,230.894 234.586,232.129 234.664 M221.191 240.917 C 224.575 240.982,230.112 240.982,233.496 240.917 C 236.880 240.852,234.111 240.799,227.344 240.799 C 220.576 240.799,217.808 240.852,221.191 240.917 M164.966 241.308 C 168.578 241.373,174.379 241.372,177.857 241.308 C 181.334 241.243,178.379 241.190,171.289 241.190 C 164.199 241.191,161.354 241.244,164.966 241.308 M268.466 255.469 C 268.466 256.436,268.542 256.831,268.635 256.348 C 268.728 255.864,268.728 255.073,268.635 254.590 C 268.542 254.106,268.466 254.502,268.466 255.469 M134.509 257.227 C 134.510 258.945,134.579 259.600,134.662 258.681 C 134.744 257.762,134.743 256.356,134.659 255.556 C 134.575 254.756,134.507 255.508,134.509 257.227 M268.928 278.906 C 268.928 287.607,268.980 291.167,269.043 286.816 C 269.105 282.466,269.105 275.347,269.043 270.996 C 268.980 266.646,268.928 270.205,268.928 278.906 M134.552 284.766 C 134.552 292.822,134.604 296.118,134.667 292.090 C 134.731 288.062,134.731 281.470,134.667 277.441 C 134.604 273.413,134.552 276.709,134.552 284.766 M301.953 296.680 C 300.353 298.291,299.131 299.609,299.238 299.609 C 299.346 299.609,300.743 298.291,302.344 296.680 C 303.944 295.068,305.166 293.750,305.059 293.750 C 304.951 293.750,303.554 295.068,301.953 296.680 M99.219 298.242 C 99.948 298.994,100.632 299.609,100.739 299.609 C 100.847 299.609,100.338 298.994,99.609 298.242 C 98.881 297.490,98.196 296.875,98.089 296.875 C 97.982 296.875,98.490 297.490,99.219 298.242 M94.141 297.373 C 94.141 297.432,95.503 298.794,97.168 300.400 L 100.195 303.320 97.275 300.293 C 94.563 297.481,94.141 297.087,94.141 297.373 M294.311 299.707 L 293.164 300.977 294.434 299.829 C 295.132 299.198,295.703 298.627,295.703 298.560 C 295.703 298.258,295.381 298.524,294.311 299.707 M82.024 316.504 C 84.276 318.813,86.166 320.703,86.223 320.703 C 86.506 320.703,86.029 320.202,82.129 316.399 L 77.930 312.305 82.024 316.504 M269.141 316.797 C 269.141 317.441,269.286 317.969,269.464 317.969 C 269.641 317.969,269.709 317.441,269.615 316.797 C 269.520 316.152,269.375 315.625,269.292 315.625 C 269.209 315.625,269.141 316.152,269.141 316.797 M269.317 321.587 C 269.213 321.859,269.175 327.000,269.232 333.013 L 269.337 343.945 269.532 332.519 C 269.639 326.235,269.677 321.093,269.617 321.094 C 269.556 321.094,269.422 321.316,269.317 321.587 M134.679 339.453 C 134.619 346.328,134.702 351.953,134.863 351.953 C 135.024 351.953,135.156 346.328,135.156 339.453 C 135.156 332.578,135.073 326.953,134.972 326.953 C 134.870 326.953,134.738 332.578,134.679 339.453 " stroke="none" fill="#235c4e" fill-rule="evenodd"></path><path id="path3" d="M303.320 107.422 C 304.159 108.281,304.934 108.984,305.041 108.984 C 305.149 108.984,304.550 108.281,303.711 107.422 C 302.872 106.563,302.097 105.859,301.990 105.859 C 301.882 105.859,302.481 106.563,303.320 107.422 M142.480 174.116 C 143.608 174.195,145.454 174.195,146.582 174.116 C 147.710 174.037,146.787 173.973,144.531 173.973 C 142.275 173.973,141.353 174.037,142.480 174.116 M138.022 176.953 C 138.022 178.564,138.091 179.224,138.175 178.418 C 138.259 177.612,138.259 176.294,138.175 175.488 C 138.091 174.683,138.022 175.342,138.022 176.953 M223.181 204.102 C 223.182 205.820,223.251 206.475,223.333 205.556 C 223.416 204.637,223.415 203.231,223.331 202.431 C 223.247 201.631,223.179 202.383,223.181 204.102 M157.520 211.523 C 157.525 212.383,157.605 212.688,157.698 212.202 C 157.792 211.717,157.788 211.013,157.690 210.640 C 157.592 210.267,157.516 210.664,157.520 211.523 M138.406 231.250 C 138.406 232.646,138.477 233.218,138.564 232.520 C 138.650 231.821,138.650 230.679,138.564 229.980 C 138.477 229.282,138.406 229.854,138.406 231.250 M170.410 233.881 C 171.431 233.961,173.101 233.961,174.121 233.881 C 175.142 233.800,174.307 233.735,172.266 233.735 C 170.225 233.735,169.390 233.800,170.410 233.881 M240.137 240.901 C 240.620 240.994,241.411 240.994,241.895 240.901 C 242.378 240.808,241.982 240.731,241.016 240.731 C 240.049 240.731,239.653 240.808,240.137 240.901 M186.246 241.305 C 187.597 241.382,189.706 241.381,190.933 241.304 C 192.160 241.227,191.055 241.164,188.477 241.165 C 185.898 241.166,184.895 241.229,186.246 241.305 M145.410 241.676 C 145.786 241.774,146.401 241.774,146.777 241.676 C 147.153 241.577,146.846 241.497,146.094 241.497 C 145.342 241.497,145.034 241.577,145.410 241.676 M134.487 261.914 C 134.490 262.988,134.566 263.381,134.655 262.788 C 134.745 262.194,134.743 261.315,134.650 260.834 C 134.557 260.354,134.484 260.840,134.487 261.914 M134.503 267.773 C 134.505 269.277,134.576 269.845,134.660 269.034 C 134.745 268.224,134.743 266.993,134.657 266.300 C 134.571 265.606,134.501 266.270,134.503 267.773 M268.862 296.289 C 268.865 297.363,268.941 297.756,269.030 297.163 C 269.120 296.569,269.118 295.690,269.025 295.209 C 268.932 294.729,268.859 295.215,268.862 296.289 M319.901 316.309 L 318.555 317.773 320.020 316.427 C 320.825 315.687,321.484 315.028,321.484 314.962 C 321.484 314.664,321.154 314.945,319.901 316.309 M134.887 318.945 C 134.889 320.234,134.962 320.715,135.049 320.013 C 135.136 319.310,135.134 318.256,135.045 317.669 C 134.956 317.082,134.884 317.656,134.887 318.945 M269.247 345.313 C 269.247 346.279,269.323 346.675,269.416 346.191 C 269.509 345.708,269.509 344.917,269.416 344.434 C 269.323 343.950,269.247 344.346,269.247 345.313 " stroke="none" fill="#2f7c6c" fill-rule="evenodd"></path><path id="path4" d="M135.277 52.148 C 135.279 53.438,135.352 53.918,135.439 53.216 C 135.526 52.514,135.524 51.459,135.435 50.872 C 135.346 50.285,135.275 50.859,135.277 52.148 M320.117 85.156 C 322.473 87.520,324.489 89.453,324.596 89.453 C 324.703 89.453,322.864 87.520,320.508 85.156 C 318.152 82.793,316.136 80.859,316.029 80.859 C 315.922 80.859,317.761 82.793,320.117 85.156 M299.219 99.341 C 299.219 99.408,299.790 99.979,300.488 100.611 L 301.758 101.758 300.611 100.488 C 299.541 99.305,299.219 99.039,299.219 99.341 M299.023 103.125 C 299.863 103.984,300.637 104.688,300.744 104.688 C 300.852 104.688,300.253 103.984,299.414 103.125 C 298.575 102.266,297.800 101.563,297.693 101.563 C 297.586 101.563,298.184 102.266,299.023 103.125 M100.000 107.227 C 98.399 108.838,97.178 110.156,97.285 110.156 C 97.393 110.156,98.790 108.838,100.391 107.227 C 101.991 105.615,103.213 104.297,103.105 104.297 C 102.998 104.297,101.601 105.615,100.000 107.227 M135.281 148.438 C 135.281 149.834,135.352 150.405,135.439 149.707 C 135.525 149.009,135.525 147.866,135.439 147.168 C 135.352 146.470,135.281 147.041,135.281 148.438 M232.520 172.554 C 233.755 172.632,235.776 172.632,237.012 172.554 C 238.247 172.477,237.236 172.413,234.766 172.413 C 232.295 172.413,231.284 172.477,232.520 172.554 M154.223 174.120 C 157.513 174.186,162.786 174.186,165.942 174.120 C 169.098 174.055,166.406 174.001,159.961 174.001 C 153.516 174.001,150.934 174.055,154.223 174.120 M161.015 187.009 C 162.884 187.081,166.048 187.081,168.047 187.010 C 170.045 186.939,168.516 186.881,164.648 186.880 C 160.781 186.880,159.146 186.938,161.015 187.009 M368.059 190.625 C 368.059 191.377,368.140 191.685,368.238 191.309 C 368.336 190.933,368.336 190.317,368.238 189.941 C 368.140 189.565,368.059 189.873,368.059 190.625 M61.419 193.750 C 61.419 194.502,61.499 194.810,61.597 194.434 C 61.696 194.058,61.696 193.442,61.597 193.066 C 61.499 192.690,61.419 192.998,61.419 193.750 M33.328 198.047 C 33.328 199.443,33.399 200.015,33.486 199.316 C 33.572 198.618,33.572 197.476,33.486 196.777 C 33.399 196.079,33.328 196.650,33.328 198.047 M245.079 196.875 L 245.117 197.852 254.004 197.863 L 262.891 197.874 254.127 197.758 C 245.410 197.642,245.362 197.637,245.202 196.770 C 245.065 196.025,245.047 196.040,245.079 196.875 M138.460 212.891 C 138.460 221.807,138.511 225.454,138.574 220.996 C 138.636 216.538,138.636 209.243,138.574 204.785 C 138.511 200.327,138.460 203.975,138.460 212.891 M58.302 198.633 C 58.306 199.492,58.386 199.798,58.479 199.312 C 58.573 198.826,58.569 198.123,58.472 197.749 C 58.374 197.376,58.297 197.773,58.302 198.633 M159.082 197.550 C 159.888 197.634,161.206 197.634,162.012 197.550 C 162.817 197.466,162.158 197.397,160.547 197.397 C 158.936 197.397,158.276 197.466,159.082 197.550 M61.044 199.609 C 61.044 200.576,61.120 200.972,61.213 200.488 C 61.306 200.005,61.306 199.214,61.213 198.730 C 61.120 198.247,61.044 198.643,61.044 199.609 M33.328 203.125 C 33.328 204.521,33.399 205.093,33.486 204.395 C 33.572 203.696,33.572 202.554,33.486 201.855 C 33.399 201.157,33.328 201.729,33.328 203.125 M191.016 205.591 C 191.016 205.658,191.587 206.229,192.285 206.861 L 193.555 208.008 192.407 206.738 C 191.338 205.555,191.016 205.289,191.016 205.591 M203.606 207.031 C 203.606 207.783,203.687 208.091,203.785 207.715 C 203.883 207.339,203.883 206.724,203.785 206.348 C 203.687 205.972,203.606 206.279,203.606 207.031 M263.380 210.352 C 263.384 211.211,263.464 211.517,263.558 211.031 C 263.651 210.545,263.647 209.842,263.550 209.468 C 263.452 209.095,263.375 209.492,263.380 210.352 M162.793 209.666 C 164.780 209.737,168.032 209.737,170.020 209.666 C 172.007 209.595,170.381 209.537,166.406 209.537 C 162.432 209.537,160.806 209.595,162.793 209.666 M368.067 210.742 C 368.072 211.602,368.152 211.907,368.245 211.421 C 368.338 210.935,368.335 210.232,368.237 209.859 C 368.139 209.485,368.063 209.883,368.067 210.742 M61.044 213.281 C 61.044 214.248,61.120 214.644,61.213 214.160 C 61.306 213.677,61.306 212.886,61.213 212.402 C 61.120 211.919,61.044 212.314,61.044 213.281 M157.563 216.406 C 157.563 218.447,157.629 219.282,157.709 218.262 C 157.789 217.241,157.789 215.571,157.709 214.551 C 157.629 213.530,157.563 214.365,157.563 216.406 M58.294 214.453 C 58.294 215.205,58.374 215.513,58.472 215.137 C 58.571 214.761,58.571 214.146,58.472 213.770 C 58.374 213.394,58.294 213.701,58.294 214.453 M152.075 233.886 C 155.257 233.952,160.354 233.952,163.403 233.886 C 166.451 233.820,163.848 233.766,157.617 233.766 C 151.387 233.766,148.893 233.820,152.075 233.886 M237.798 234.261 C 238.283 234.354,238.987 234.351,239.360 234.253 C 239.733 234.155,239.336 234.079,238.477 234.083 C 237.617 234.087,237.312 234.167,237.798 234.261 M244.824 240.914 C 246.167 240.990,248.364 240.990,249.707 240.914 C 251.050 240.838,249.951 240.776,247.266 240.776 C 244.580 240.776,243.481 240.838,244.824 240.914 M195.801 241.306 C 197.466 241.379,200.190 241.379,201.855 241.306 C 203.521 241.233,202.158 241.173,198.828 241.173 C 195.498 241.173,194.136 241.233,195.801 241.306 M149.723 241.696 C 151.182 241.772,153.468 241.771,154.801 241.695 C 156.135 241.619,154.941 241.557,152.148 241.558 C 149.355 241.559,148.264 241.621,149.723 241.696 M268.491 261.328 C 268.491 262.939,268.560 263.599,268.644 262.793 C 268.728 261.987,268.728 260.669,268.644 259.863 C 268.560 259.058,268.491 259.717,268.491 261.328 M264.942 277.148 C 264.947 278.008,265.027 278.313,265.120 277.827 C 265.213 277.342,265.210 276.638,265.112 276.265 C 265.014 275.892,264.938 276.289,264.942 277.148 M302.713 291.699 L 301.367 293.164 302.832 291.818 C 304.195 290.565,304.476 290.234,304.178 290.234 C 304.113 290.234,303.454 290.894,302.713 291.699 M305.448 292.871 L 304.102 294.336 305.566 292.990 C 306.930 291.737,307.211 291.406,306.913 291.406 C 306.847 291.406,306.188 292.065,305.448 292.871 M268.905 303.516 C 268.905 306.631,268.966 307.905,269.040 306.348 C 269.114 304.790,269.114 302.241,269.040 300.684 C 268.966 299.126,268.905 300.400,268.905 303.516 M134.929 309.375 C 134.929 313.564,134.987 315.278,135.057 313.184 C 135.127 311.089,135.127 307.661,135.057 305.566 C 134.987 303.472,134.929 305.186,134.929 309.375 M323.614 312.598 L 322.070 314.258 323.730 312.714 C 325.274 311.278,325.570 310.938,325.275 310.938 C 325.211 310.938,324.464 311.685,323.614 312.598 M317.358 318.848 L 316.211 320.117 317.480 318.970 C 318.179 318.339,318.750 317.768,318.750 317.700 C 318.750 317.399,318.428 317.664,317.358 318.848 M269.258 348.828 C 269.258 350.010,269.331 350.493,269.420 349.902 C 269.510 349.312,269.510 348.345,269.420 347.754 C 269.331 347.163,269.258 347.646,269.258 348.828 " stroke="none" fill="#34846c" fill-rule="evenodd"></path></g></svg>